<?xml version="1.0" encoding="UTF-8"?>
<svg width="904px" height="899px" viewBox="0 0 904 899" version="1.1" xmlns="http://www.w3.org/2000/svg" xmlns:xlink="http://www.w3.org/1999/xlink">
    <title>Group 2</title>
    <defs>
        <linearGradient x1="5.18025932%" y1="24.2477419%" x2="91.8459153%" y2="69.9619432%" id="linearGradient-1">
            <stop stop-color="#4566E4" offset="0%"></stop>
            <stop stop-color="#112577" offset="100%"></stop>
        </linearGradient>
        <linearGradient x1="-18.9009653%" y1="34.768986%" x2="100%" y2="34.768986%" id="linearGradient-2">
            <stop stop-color="#274CAF" offset="0%"></stop>
            <stop stop-color="#274CAF" offset="47.5889367%"></stop>
            <stop stop-color="#112577" offset="100%"></stop>
        </linearGradient>
        <polygon id="path-3" points="446 201 464 201 465 207 464 213 464 229 467 241 473 252 481 261 489 266 493 268 495 284 499 294 505 302 512 308 521 312 535 314 543 324 551 330 561 334 579 336 580 337 580 353 576 372 569 391 558 410 549 421 538 433 524 444 511 452 496 459 479 464 466 466 438 466 418 462 403 457 384 447 373 439 363 430 352 419 341 403 332 386 327 371 323 352 322 341 322 327 324 310 329 291 337 272 346 258 354 248 361 240 369 233 383 223 399 214 414 208 432 203"></polygon>
        <filter x="-2.7%" y="-1.9%" width="105.4%" height="105.3%" filterUnits="objectBoundingBox" id="filter-4">
            <feOffset dx="0" dy="2" in="SourceAlpha" result="shadowOffsetOuter1"></feOffset>
            <feGaussianBlur stdDeviation="2" in="shadowOffsetOuter1" result="shadowBlurOuter1"></feGaussianBlur>
            <feColorMatrix values="0 0 0 0 0   0 0 0 0 0   0 0 0 0 0  0 0 0 0.5 0" type="matrix" in="shadowBlurOuter1" result="shadowMatrixOuter1"></feColorMatrix>
            <feOffset dx="0" dy="2" in="SourceAlpha" result="shadowOffsetOuter2"></feOffset>
            <feGaussianBlur stdDeviation="2" in="shadowOffsetOuter2" result="shadowBlurOuter2"></feGaussianBlur>
            <feColorMatrix values="0 0 0 0 0   0 0 0 0 0   0 0 0 0 0  0 0 0 0.5 0" type="matrix" in="shadowBlurOuter2" result="shadowMatrixOuter2"></feColorMatrix>
            <feMerge>
                <feMergeNode in="shadowMatrixOuter1"></feMergeNode>
                <feMergeNode in="shadowMatrixOuter2"></feMergeNode>
            </feMerge>
        </filter>
        <path d="M450,129 L461,132 L609,185 L652,200 L656,202 L658,207 L658,254 L656,287 L652,318 L646,349 L638,378 L628,405 L614,434 L602,454 L589,472 L580,482 L573,490 L553,510 L542,519 L530,529 L512,542 L493,554 L472,566 L456,574 L450,575 L434,567 L417,558 L398,546 L382,535 L365,522 L351,510 L338,498 L322,481 L311,467 L301,452 L292,437 L280,414 L270,389 L261,361 L255,335 L250,305 L247,274 L246,254 L246,211 L248,202 L264,196 L307,181 L426,138 L450,129 Z M451,150 L402,168 L344,189 L302,204 L267,216 L266,217 L266,258 L268,289 L272,320 L278,349 L285,373 L294,397 L306,422 L316,439 L328,456 L341,472 L357,489 L370,501 L384,512 L400,524 L421,537 L447,551 L453,553 L478,540 L499,527 L517,514 L533,501 L543,492 L565,470 L576,456 L587,441 L598,422 L606,406 L615,385 L623,360 L629,336 L634,307 L637,277 L638,259 L638,217 L628,213 L568,192 L529,178 L482,161 L452,150 L451,150 Z" id="path-5"></path>
        <filter x="-0.5%" y="-0.4%" width="101.0%" height="100.9%" filterUnits="objectBoundingBox" id="filter-6">
            <feGaussianBlur stdDeviation="1.5" in="SourceAlpha" result="shadowBlurInner1"></feGaussianBlur>
            <feOffset dx="0" dy="1" in="shadowBlurInner1" result="shadowOffsetInner1"></feOffset>
            <feComposite in="shadowOffsetInner1" in2="SourceAlpha" operator="arithmetic" k2="-1" k3="1" result="shadowInnerInner1"></feComposite>
            <feColorMatrix values="0 0 0 0 0   0 0 0 0 0   0 0 0 0 0  0 0 0 0.5 0" type="matrix" in="shadowInnerInner1" result="shadowMatrixInner1"></feColorMatrix>
            <feGaussianBlur stdDeviation="1.5" in="SourceAlpha" result="shadowBlurInner2"></feGaussianBlur>
            <feOffset dx="0" dy="1" in="shadowBlurInner2" result="shadowOffsetInner2"></feOffset>
            <feComposite in="shadowOffsetInner2" in2="SourceAlpha" operator="arithmetic" k2="-1" k3="1" result="shadowInnerInner2"></feComposite>
            <feColorMatrix values="0 0 0 0 0   0 0 0 0 0   0 0 0 0 0  0 0 0 0.5 0" type="matrix" in="shadowInnerInner2" result="shadowMatrixInner2"></feColorMatrix>
            <feMerge>
                <feMergeNode in="shadowMatrixInner1"></feMergeNode>
                <feMergeNode in="shadowMatrixInner2"></feMergeNode>
            </feMerge>
        </filter>
        <filter x="-1.0%" y="-5.1%" width="102.0%" height="115.9%" filterUnits="objectBoundingBox" id="filter-7">
            <feOffset dx="0" dy="2" in="SourceAlpha" result="shadowOffsetOuter1"></feOffset>
            <feGaussianBlur stdDeviation="1.5" in="shadowOffsetOuter1" result="shadowBlurOuter1"></feGaussianBlur>
            <feColorMatrix values="0 0 0 0 0   0 0 0 0 0   0 0 0 0 0  0 0 0 0.5 0" type="matrix" in="shadowBlurOuter1" result="shadowMatrixOuter1"></feColorMatrix>
            <feMerge>
                <feMergeNode in="shadowMatrixOuter1"></feMergeNode>
                <feMergeNode in="SourceGraphic"></feMergeNode>
            </feMerge>
        </filter>
        <filter x="-1.1%" y="-13.0%" width="102.3%" height="140.7%" filterUnits="objectBoundingBox" id="filter-8">
            <feOffset dx="0" dy="2" in="SourceAlpha" result="shadowOffsetOuter1"></feOffset>
            <feGaussianBlur stdDeviation="1.5" in="shadowOffsetOuter1" result="shadowBlurOuter1"></feGaussianBlur>
            <feColorMatrix values="0 0 0 0 0   0 0 0 0 0   0 0 0 0 0  0 0 0 0.5 0" type="matrix" in="shadowBlurOuter1" result="shadowMatrixOuter1"></feColorMatrix>
            <feMerge>
                <feMergeNode in="shadowMatrixOuter1"></feMergeNode>
                <feMergeNode in="SourceGraphic"></feMergeNode>
            </feMerge>
        </filter>
    </defs>
    <g id="Page-1" stroke="none" stroke-width="1" fill="none" fill-rule="evenodd">
        <g id="Group-2" fill-rule="nonzero">
            <g id="2wqvi9eH8s7X7vanGKRqvbh65CG">
                <path d="M461,0 L486,1 L507,3 L534,7 L570,15 L593,22 L621,32 L646,43 L675,58 L695,70 L716,84 L735,98 L745,107 L756,116 L781,141 L788,149 L797,159 L806,170 L819,187 L837,214 L851,238 L865,267 L875,291 L885,320 L893,350 L899,382 L903,418 L904,457 L902,492 L899,517 L894,544 L887,572 L878,600 L867,628 L856,651 L844,673 L835,688 L823,706 L810,724 L799,737 L790,748 L758,780 L744,792 L733,801 L716,814 L694,829 L667,845 L639,859 L610,871 L587,879 L558,887 L529,893 L499,897 L469,899 L434,899 L417,898 L398,896 L366,891 L336,884 L306,875 L277,864 L253,853 L238,845 L214,831 L191,816 L174,803 L160,792 L150,783 L142,776 L129,763 L120,753 L109,741 L98,728 L82,707 L69,688 L57,668 L46,647 L34,621 L22,589 L13,558 L7,531 L2,497 L0,466 L0,436 L2,405 L5,382 L10,355 L17,327 L23,308 L33,280 L45,253 L59,227 L72,205 L84,188 L99,168 L107,159 L116,148 L138,126 L151,114 L165,102 L183,88 L203,74 L221,63 L244,50 L265,40 L294,28 L321,19 L347,12 L378,6 L410,2 L444,0 L461,0 Z" id="Combined-Shape" fill="url(#linearGradient-1)"></path>
                <polygon id="Path" fill="url(#linearGradient-2)" points="451 150 471 157 513 172 549 185 594 201 634 215 638 217 638 259 636 289 632 320 626 349 619 373 611 395 600 419 587 441 576 456 567 467 558 477 536 499 522 510 509 520 491 532 467 546 453 553 447 551 419 536 399 523 384 512 373 503 353 485 338 469 325 452 313 434 304 418 293 395 283 367 276 340 271 314 268 289 266 258 266 217 276 213 328 195 446 152"></polygon>
                <g id="Path">
                    <use fill="black" fill-opacity="1" filter="url(#filter-4)" xlink:href="#path-3"></use>
                    <use fill="#FDCC23" xlink:href="#path-3"></use>
                </g>
                <g id="Shape">
                    <use fill="#42ABFE" xlink:href="#path-5"></use>
                    <use fill="black" fill-opacity="1" filter="url(#filter-6)" xlink:href="#path-5"></use>
                </g>
                <g id="CookieShield" filter="url(#filter-7)" transform="translate(185, 609)" fill="#FFFFFF">
                    <path d="M30.565365,56.173913 L21.4736842,56.173913 C16.4516129,56.173913 13.2478778,52.2585194 13.2478778,47.5440658 L13.2478778,20.4559342 C13.2478778,15.7414806 16.4516129,11.826087 21.4736842,11.826087 L30.565365,11.826087 C34.8081494,11.826087 36.6264856,14.5428907 37.4057725,18.0587544 L51,18.0587544 C49.9609508,7.9106933 41.9083192,0 30.6519525,0 L21.3870968,0 C9.61120543,0 0,8.86956522 0,19.8166863 L0,48.2632197 C0,59.1304348 9.61120543,68 21.3870968,68 L30.6519525,68 C41.8217317,68 49.9609508,60.1692127 51,50.1809636 L37.3191851,50.1809636 C36.4533107,53.6169213 34.721562,56.173913 30.565365,56.173913 Z" id="Path"></path>
                    <path d="M78.25,17 C65.7019231,17 58,24.2971698 58,35.6037736 L58,49.3160377 C58,60.6226415 65.7019231,68 78.25,68 L82.6634615,68 C95.2980769,68 103,60.6226415 103,49.3160377 L103,35.6037736 C103,24.2971698 95.2980769,17 82.6634615,17 L78.25,17 Z M82.6634615,28.4669811 C87.25,28.4669811 90.625,31.5943396 90.625,35.9245283 L90.625,48.995283 C90.625,53.3254717 87.25,56.4528302 82.6634615,56.4528302 L78.25,56.4528302 C73.75,56.4528302 70.2884615,53.3254717 70.2884615,48.995283 L70.2884615,35.9245283 C70.2884615,31.5943396 73.75,28.4669811 78.25,28.4669811 L82.6634615,28.4669811 Z" id="Shape"></path>
                    <path d="M130.25,17 C117.701923,17 110,24.2971698 110,35.6037736 L110,49.3160377 C110,60.6226415 117.701923,68 130.25,68 L134.663462,68 C147.298077,68 155,60.6226415 155,49.3160377 L155,35.6037736 C155,24.2971698 147.298077,17 134.663462,17 L130.25,17 Z M134.663462,28.4669811 C139.25,28.4669811 142.625,31.5943396 142.625,35.9245283 L142.625,48.995283 C142.625,53.3254717 139.25,56.4528302 134.663462,56.4528302 L130.25,56.4528302 C125.75,56.4528302 122.288462,53.3254717 122.288462,48.995283 L122.288462,35.9245283 C122.288462,31.5943396 125.75,28.4669811 130.25,28.4669811 L134.663462,28.4669811 Z" id="Shape"></path>
                    <polygon id="Path" points="181.941176 40.6721504 208.650854 17.1797885 193.550285 17.1797885 175.83112 33.2408931 175.83112 0 163 0 163 68 175.83112 68 175.83112 48.6627497 194.597723 68 209 68"></polygon>
                    <path d="M226,17.1797885 L213,17.1797885 L213,68 L226,68 L226,17.1797885 Z M226,0 L213,0 L213,11.666275 L226,11.666275 L226,0 Z" id="Shape"></path>
                    <path d="M234,51.5736677 C234,61.5658307 242.086957,69 251.913043,69 L280.086957,69 L280.086957,57.8087774 L254.782609,57.8087774 C250.086957,57.8087774 246.782609,56.0501567 246.782609,51.2539185 L246.782609,48.5360502 L282,48.5360502 L282,35.6661442 C282,27.6724138 275.478261,18 264.173913,18 L251.826087,18 C242.956522,18 234,26.3134796 234,36.0658307 L234,51.5736677 Z M246.956522,38.5438871 C246.956522,33.8275862 250,29.5909091 254.608696,29.5909091 L261.391304,29.5909091 C266.173913,29.5909091 269.391304,33.507837 269.391304,38.5438871 L269.391304,39.1034483 L246.956522,39.1034483 L246.956522,38.5438871 Z" id="Shape"></path>
                    <path d="M310.869029,25.8096357 C306.565485,25.8096357 303.930663,23.172738 303.930663,19.8166863 C303.930663,14.1433608 308.497689,13.2643948 314.206471,13.2643948 L339.412943,13.2643948 L339.412943,0 L308.497689,0 C296.728814,0 289,9.1092832 289,19.1774383 C289,33.3207991 298.748844,39.0740306 313.679507,39.0740306 L322.550077,39.0740306 C328.083205,39.0740306 332.386749,42.1104583 332.386749,47.3043478 C332.386749,52.8178613 327.468413,55.3748531 321.496148,55.3748531 L291.371341,55.3748531 L291.371341,68 L325.448382,68 C337.656394,68 346,59.0505288 346,47.3043478 C346,34.8390129 336.77812,25.8096357 324.306626,25.8096357 L310.869029,25.8096357 Z" id="Path"></path>
                    <path d="M377.838772,28.5264395 C385.353167,28.5264395 386.821497,32.1222092 386.821497,36.9165687 L386.821497,68 L399,68 L399,34.519389 C399,25.8895417 392.522073,17.1797885 379.738964,17.1797885 L373.261036,17.1797885 C370.583493,17.1797885 368.165067,17.5793184 366.092131,18.2185664 L366.092131,0 L354,0 L354,68 L366.092131,68 L366.092131,36.9165687 C366.092131,32.1222092 367.560461,28.5264395 375.161228,28.5264395 L377.838772,28.5264395 Z" id="Path"></path>
                    <path d="M421,17.1797885 L408,17.1797885 L408,68 L421,68 L421,17.1797885 Z M421,0 L408,0 L408,11.666275 L421,11.666275 L421,0 Z" id="Shape"></path>
                    <path d="M428,51.5736677 C428,61.5658307 436.086957,69 445.913043,69 L474.086957,69 L474.086957,57.8087774 L448.782609,57.8087774 C444.086957,57.8087774 440.782609,56.0501567 440.782609,51.2539185 L440.782609,48.5360502 L476,48.5360502 L476,35.6661442 C476,27.6724138 469.478261,18 458.173913,18 L445.826087,18 C436.956522,18 428,26.3134796 428,36.0658307 L428,51.5736677 Z M440.956522,38.5438871 C440.956522,33.8275862 444,29.5909091 448.608696,29.5909091 L455.391304,29.5909091 C460.173913,29.5909091 463.391304,33.507837 463.391304,38.5438871 L463.391304,39.1034483 L440.956522,39.1034483 L440.956522,38.5438871 Z" id="Shape"></path>
                    <polygon id="Path" points="485 68 498 68 498 0 485 0"></polygon>
                    <path d="M552,68 L552,0 L539.798077,0 L539.798077,18.3783784 C537.375,17.5793184 534.605769,17.1797885 531.663462,17.1797885 L527.25,17.1797885 C514.701923,17.1797885 507,24.4512338 507,35.7179788 L507,49.3819036 C507,60.6486486 514.701923,68 527.25,68 L552,68 Z M527.25,56.493537 C522.663462,56.493537 518.942308,53.3772033 518.942308,49.0622797 L518.942308,36.0376028 C518.942308,31.7226792 522.663462,28.6063455 527.25,28.6063455 L531.663462,28.6063455 C536.25,28.6063455 539.798077,31.7226792 539.798077,36.0376028 L539.798077,56.493537 L527.25,56.493537 Z" id="Shape"></path>
                </g>
                <polygon id="Path" fill="#853F1F" points="511 362 520 363 526 366 534 375 536 383 535 392 532 398 527 403 523 406 516 408 506 407 499 403 493 396 491 390 491 381 495 371 502 365"></polygon>
                <polygon id="Path" fill="#853F1F" points="406 251 416 252 424 257 429 263 431 268 431 280 427 288 420 294 415 296 403 296 395 292 389 284 387 279 387 268 391 260 399 253"></polygon>
                <polygon id="Path" fill="#853F1F" points="376 342 385 343 391 348 394 355 393 363 386 371 382 373 373 373 368 370 365 366 364 363 364 353 368 347 373 343"></polygon>
                <polygon id="Path" fill="#853F1F" points="423 400 433 400 439 404 443 412 441 421 437 426 433 428 423 428 417 424 414 418 415 409 418 404"></polygon>
                <polygon id="Path" fill="#853F1F" points="448 325 456 326 463 332 464 334 464 344 460 350 454 353 447 353 441 349 438 346 437 343 437 335 441 329 445 326"></polygon>
                <polygon id="Path" fill="#2136C4" points="690 727 695 728 697 731 697 738 693 742 688 740 687 739 687 730"></polygon>
                <polygon id="Path" fill="#2136C4" points="627 727 632 727 634 729 634 739 632 741 627 741 624 736 625 729"></polygon>
                <polygon id="Path" fill="#2136C4" points="505 731 512 731 515 733 515 739 512 741 505 741"></polygon>
                <polygon id="Path" fill="#2136C4" points="505 719 512 719 514 721 513 726 512 727 505 727"></polygon>
                <polygon id="Path" fill="#2136C4" points="244 733 247 734 248 740 247 742 243 742 242 736"></polygon>
                <polygon id="Path" fill="#2136C4" points="227 718 230 718 231 725 230 727 226 726 226 719"></polygon>
            </g>
            <g id="100%-DSGVO-und-BITV" filter="url(#filter-8)" transform="translate(217, 723)" fill="#42ABFE">
                <path d="M71.9229585,0 L62.7234773,27 L58.3658283,27 L67.6258324,0 L71.9229585,0 Z M7.8396072,0.771428571 L7.8396072,26.2285714 L3.56613711,26.2285714 L3.56613711,5.40815847 L0,5.40815847 L2.88827634,0.771428571 L7.8396072,0.771428571 Z M22.6938089,0.771428571 C26.5924244,0.771428571 29.7905074,3.86435247 29.7905074,7.70076769 L29.7905074,19.2992323 C29.7905074,23.1356475 26.5924244,26.2285714 22.6938089,26.2285714 L18.8256513,26.2285714 C14.9270359,26.2285714 11.7594108,23.1356475 11.7594108,19.2992323 L11.7594108,7.70076769 C11.7594108,3.86435247 14.9270359,0.771428571 18.8256513,0.771428571 Z M43.8607483,0.771428571 C47.7593638,0.771428571 50.9574468,3.86435247 50.9574468,7.70076769 L50.9574468,19.2992323 C50.9574468,23.1356475 47.7593638,26.2285714 43.8607483,26.2285714 L39.9925908,26.2285714 C36.0939753,26.2285714 32.9263502,23.1356475 32.9263502,19.2992323 L32.9263502,7.70076769 C32.9263502,3.86435247 36.0939753,0.771428571 39.9925908,0.771428571 Z M102.013221,0.771428571 C105.436073,0.771428571 108.186579,3.7927816 108.186579,7.50216552 L108.186579,19.4978345 C108.186579,23.2072184 105.436073,26.2285714 102.013221,26.2285714 L90.1554828,26.2285714 L90.1554828,0.771428571 Z M127.87257,0.771428571 L127.87257,5.73721672 L119.205516,5.73721672 C117.242594,5.73721672 115.672257,6.06627497 115.672257,8.19019641 C115.672257,9.44660064 116.578221,10.4337754 118.057962,10.4337754 L122.678377,10.4337754 C126.966606,10.4337754 130.13748,13.8141011 130.13748,18.4807453 C130.13748,22.8781601 127.268594,26.2285714 123.070961,26.2285714 L111.353829,26.2285714 L111.353829,21.5020984 L121.712016,21.5020984 C123.765534,21.5020984 125.456666,20.544838 125.456666,18.4807453 C125.456666,16.5363102 123.976925,15.3995635 122.074401,15.3995635 L119.024323,15.3995635 C113.890528,15.3995635 110.538462,13.2457277 110.538462,7.95088132 C110.538462,4.18166863 113.195956,0.771428571 117.242594,0.771428571 L127.87257,0.771428571 Z M258.707038,0.771428571 L258.707038,26.2285714 L250.08347,26.2285714 C245.711381,26.2285714 243.027823,23.4764479 243.027823,19.2585194 L243.027823,14.1431593 C243.027823,9.92523082 245.711381,7.20302166 250.08347,7.20302166 L251.621239,7.20302166 C252.646418,7.20302166 253.611293,7.35259359 254.455558,7.65173745 L254.455558,0.771428571 L258.707038,0.771428571 Z M229.3373,6.94285714 L229.3373,7.42803235 C230.134548,7.12479784 231.079435,6.94285714 232.083377,6.94285714 L234.002678,6.94285714 C238.37278,6.94285714 240.675941,10.2481132 240.675941,13.5230458 L240.675941,26.2285714 L236.335368,26.2285714 L236.335368,14.4327493 C236.335368,12.6133423 235.92198,11.2487871 233.323541,11.2487871 L232.43771,11.2487871 C229.839271,11.2487871 229.3373,12.6133423 229.3373,14.4327493 L229.3373,26.2285714 L224.996727,26.2285714 L224.996727,6.94285714 L229.3373,6.94285714 Z M144.09198,0.771428571 C148.064934,0.771428571 150.907124,3.73295283 151.273858,7.53207991 L146.567436,7.53207991 C146.261824,6.2158469 145.558917,5.19875776 144.061419,5.19875776 L140.852495,5.19875776 C139.079947,5.19875776 137.888061,6.6645627 137.888061,8.4295115 L137.888061,18.5704885 C137.888061,20.3354373 139.079947,21.8012422 140.852495,21.8012422 L144.214225,21.8012422 C145.681162,21.8012422 146.628558,20.8439819 146.93417,19.5576633 L146.93417,15.3397348 L142.594483,15.3397348 L142.594483,11.3611214 L151.304419,11.3611214 L151.304419,26.2285714 L146.93417,26.2285714 L146.93417,25.420883 C145.864529,25.9294276 144.672643,26.2285714 143.450196,26.2285714 L140.821934,26.2285714 C136.665613,26.2285714 133.273322,22.9080745 133.273322,18.839718 L133.273322,8.19019641 C133.273322,4.09192547 136.665613,0.771428571 140.821934,0.771428571 Z M158.3401,0.771428571 L162.656543,17.4636562 L162.901447,17.4636562 C164.217809,11.8995803 165.656623,6.42524761 167.034211,0.771428571 L171.687398,0.771428571 L165.289267,26.2285714 L160.299337,26.2285714 L153.656301,0.771428571 L158.3401,0.771428571 Z M455.988903,6.94285714 L455.988903,7.5190027 C456.922599,7.15512129 457.976772,6.94285714 459.121303,6.94285714 L460.747742,6.94285714 C462.735612,6.94285714 464.331931,7.60997305 465.446343,8.64097035 C466.620993,7.60997305 468.247432,6.94285714 470.265421,6.94285714 L472.193052,6.94285714 C476.680819,6.94285714 479,10.2481132 479,13.5230458 L479,26.2285714 L474.602591,26.2285714 L474.602591,14.4327493 C474.602591,12.6133423 474.180922,11.2487871 471.530429,11.2487871 L470.596733,11.2487871 C467.916121,11.2487871 467.55469,12.6133423 467.55469,14.4024259 L467.55469,26.2285714 L463.127162,26.2285714 L463.127162,14.4327493 C463.127162,12.6133423 462.705493,11.2487871 460.055,11.2487871 L459.151423,11.2487871 C456.50093,11.2487871 455.988903,12.6133423 455.988903,14.4327493 L455.988903,26.2285714 L451.561375,26.2285714 L451.561375,6.94285714 L455.988903,6.94285714 Z M439.80375,6.94285714 L439.80375,11.004591 C441.260952,8.65781146 444.69145,7.45433474 447.909439,7.45433474 L448.425532,7.45433474 L448.425532,12.117807 L447.909439,12.117807 C444.236074,12.117807 439.80375,15.3671941 439.80375,18.2555382 L439.80375,26.2285714 L435.0982,26.2285714 L435.0982,6.94285714 L439.80375,6.94285714 Z M282.741413,0.771428571 C286.439316,0.771428571 288.945333,3.28423703 288.945333,6.99362095 L288.945333,9.05771361 C288.945333,10.6730905 288.242426,12.3482961 287.111662,13.4850428 L287.142223,13.4850428 C288.639721,14.5619607 289.281506,16.2371664 289.281506,17.912372 L289.281506,19.4978345 C289.281506,23.7456774 286.714367,26.2285714 283.077586,26.2285714 L271.250409,26.2285714 L271.250409,0.771428571 Z M185.318498,0.771428571 C189.498295,0.771428571 192.854337,4.09192547 192.854337,8.19019641 L192.854337,18.839718 C192.854337,22.9080745 189.498295,26.2285714 185.318498,26.2285714 L182.35908,26.2285714 C178.209792,26.2285714 174.823241,22.9080745 174.823241,18.839718 L174.823241,8.19019641 C174.823241,4.09192547 178.209792,0.771428571 182.35908,0.771428571 Z M296.337152,0.771428571 L296.337152,26.2285714 L291.633388,26.2285714 L291.633388,0.771428571 L296.337152,0.771428571 Z M353.236039,0.771428571 L353.236039,13.2158133 L359.275661,7.20302166 L364.422728,7.20302166 L355.318668,15.9978513 L364.541735,26.2285714 L359.632683,26.2285714 L353.236039,18.9892899 L353.236039,26.2285714 L348.86252,26.2285714 L348.86252,0.771428571 L353.236039,0.771428571 Z M389.265287,6.94285714 L389.265287,7.42803235 C390.062535,7.12479784 391.007422,6.94285714 392.011364,6.94285714 L393.930665,6.94285714 C398.300767,6.94285714 400.603928,10.2481132 400.603928,13.5230458 L400.603928,26.2285714 L396.263355,26.2285714 L396.263355,14.4327493 C396.263355,12.6133423 395.849967,11.2487871 393.251528,11.2487871 L392.365697,11.2487871 C389.767258,11.2487871 389.265287,12.6133423 389.265287,14.4327493 L389.265287,26.2285714 L384.924714,26.2285714 L384.924714,6.94285714 L389.265287,6.94285714 Z M316.720131,0.771428571 L316.720131,5.46798724 L309.996671,5.46798724 L309.996671,26.2285714 L305.351372,26.2285714 L305.351372,5.46798724 L298.689034,5.46798724 L298.689034,0.771428571 L316.720131,0.771428571 Z M424.876558,6.94285714 C429.278799,6.94285714 431.962357,9.70229111 431.962357,13.9778976 L431.962357,19.1632075 C431.962357,23.438814 429.278799,26.2285714 424.876558,26.2285714 L423.338789,26.2285714 C418.9667,26.2285714 416.283142,23.438814 416.283142,19.1632075 L416.283142,13.9778976 C416.283142,9.70229111 418.9667,6.94285714 423.338789,6.94285714 Z M374.703072,6.94285714 C379.105313,6.94285714 381.788871,9.70229111 381.788871,13.9778976 L381.788871,19.1632075 C381.788871,23.438814 379.105313,26.2285714 374.703072,26.2285714 L373.165303,26.2285714 C368.793214,26.2285714 366.109656,23.438814 366.109656,19.1632075 L366.109656,13.9778976 C366.109656,9.70229111 368.793214,6.94285714 373.165303,6.94285714 Z M414.715221,0.771428571 L414.715221,4.77525151 L413.340744,4.77525151 C411.599741,4.77525151 410.408528,5.94054326 410.408528,7.55402414 L410.408528,8.39064386 L414.715221,8.39064386 L414.715221,12.6633803 L410.408528,12.6633803 L410.408528,26.2285714 L406.407274,26.2285714 L406.407274,12.6633803 L402.95581,12.6633803 L402.95581,8.39064386 L406.407274,8.39064386 L406.407274,7.7332998 C406.407274,3.52032193 408.942419,0.771428571 413.340744,0.771428571 L414.715221,0.771428571 Z M209.719926,6.94285714 L209.719926,18.7386792 C209.719926,20.5277628 210.167051,21.8923181 212.79019,21.8923181 L213.624825,21.8923181 C216.069113,21.8923181 216.665281,20.6490566 216.724898,19.0115903 L216.724898,6.94285714 L221.076923,6.94285714 L221.076923,26.2285714 L216.724898,26.2285714 L216.724898,25.7433962 C215.890263,26.0466307 214.966203,26.2285714 213.952717,26.2285714 L212.04498,26.2285714 C207.60353,26.2285714 205.397709,22.8929919 205.397709,19.6180593 L205.397709,6.94285714 L209.719926,6.94285714 Z M322.971852,0.771428571 L327.288294,17.4636562 L327.533199,17.4636562 C328.849561,11.8995803 330.288375,6.42524761 331.665963,0.771428571 L336.319149,0.771428571 L329.921018,26.2285714 L324.931088,26.2285714 L318.288052,0.771428571 L322.971852,0.771428571 Z M74.101783,15.0165198 C75.9477315,15.0165198 77.6121113,16.7114537 77.6121113,18.7037445 L77.6121113,22.0936123 C77.6121113,24.1751101 76.0385158,25.8700441 74.101783,25.8700441 L71.6506054,25.8700441 C69.7138725,25.8700441 68.1402771,24.1751101 68.1402771,22.0936123 L68.1402771,18.8524229 C68.1402771,16.9493392 69.7138725,15.0165198 71.6506054,15.0165198 Z M73.4057696,18.4063877 L72.3466188,18.4063877 C71.7716512,18.4063877 71.287468,18.94163 71.287468,19.595815 L71.287468,21.3204846 C71.287468,21.9449339 71.7716512,22.4801762 72.3466188,22.4801762 L73.4057696,22.4801762 C73.9807371,22.4801762 74.4649204,21.9449339 74.4649204,21.3204846 L74.4649204,19.595815 C74.4649204,18.94163 73.9807371,18.4063877 73.4057696,18.4063877 Z M251.621239,11.4807789 L250.08347,11.4807789 C248.485396,11.4807789 247.188846,12.64744 247.188846,14.2628169 L247.188846,19.1388618 C247.188846,20.7542387 248.485396,21.9208998 250.08347,21.9208998 L254.455558,21.9208998 L254.455558,14.2628169 C254.455558,12.64744 253.219313,11.4807789 251.621239,11.4807789 Z M424.876558,11.2791105 L423.338789,11.2791105 C421.770867,11.2791105 420.564774,12.4617251 420.564774,14.0991914 L420.564774,19.0419137 C420.564774,20.6793801 421.770867,21.8619946 423.338789,21.8619946 L424.876558,21.8619946 C426.474632,21.8619946 427.650573,20.6793801 427.650573,19.0419137 L427.650573,14.0991914 C427.650573,12.4617251 426.474632,11.2791105 424.876558,11.2791105 Z M374.703072,11.2791105 L373.165303,11.2791105 C371.597381,11.2791105 370.391288,12.4617251 370.391288,14.0991914 L370.391288,19.0419137 C370.391288,20.6793801 371.597381,21.8619946 373.165303,21.8619946 L374.703072,21.8619946 C376.301146,21.8619946 377.477087,20.6793801 377.477087,19.0419137 L377.477087,14.0991914 C377.477087,12.4617251 376.301146,11.2791105 374.703072,11.2791105 Z M185.287989,5.19875776 L182.389589,5.19875776 C180.62004,5.19875776 179.491189,6.6645627 179.491189,8.4295115 L179.491189,18.5704885 C179.491189,20.3354373 180.62004,21.8012422 182.389589,21.8012422 L185.287989,21.8012422 C187.057538,21.8012422 188.186388,20.3354373 188.186388,18.5704885 L188.186388,8.4295115 C188.186388,6.6645627 187.057538,5.19875776 185.287989,5.19875776 Z M22.176024,5.29185581 L19.3434362,5.29185581 C17.5768761,5.29185581 16.1453532,6.71935915 16.1453532,8.47399866 L16.1453532,18.5260013 C16.1453532,20.2806409 17.5768761,21.7081442 19.3434362,21.7081442 L22.176024,21.7081442 C23.9425842,21.7081442 25.374107,20.2806409 25.374107,18.5260013 L25.374107,8.47399866 C25.374107,6.71935915 23.9425842,5.29185581 22.176024,5.29185581 Z M43.3429635,5.29185581 L40.5103757,5.29185581 C38.7438155,5.29185581 37.3122927,6.71935915 37.3122927,8.47399866 L37.3122927,18.5260013 C37.3122927,20.2806409 38.7438155,21.7081442 40.5103757,21.7081442 L43.3429635,21.7081442 C45.1095236,21.7081442 46.5410465,20.2806409 46.5410465,18.5260013 L46.5410465,8.47399866 C46.5410465,6.71935915 45.1095236,5.29185581 43.3429635,5.29185581 Z M282.221873,15.668793 L275.742903,15.668793 L275.742903,21.5320128 L282.221873,21.5320128 C283.627687,21.5320128 284.789012,20.2756085 284.789012,18.7200604 L284.789012,18.450831 C284.789012,16.9251972 283.627687,15.668793 282.221873,15.668793 Z M100.851896,5.43807286 L94.923027,5.43807286 L94.923027,21.5320128 L100.851896,21.5320128 C102.288272,21.5320128 103.449596,20.2756085 103.449596,18.7200604 L103.449596,8.25002518 C103.449596,6.72439147 102.288272,5.43807286 100.851896,5.43807286 Z M58.4868741,1.12995595 C60.3328227,1.12995595 61.9972025,2.82488987 61.9972025,4.81718062 L61.9972025,8.20704846 C61.9972025,10.2885463 60.423607,11.9834802 58.4868741,11.9834802 L56.0356966,11.9834802 C54.0989637,11.9834802 52.5253682,10.2885463 52.5253682,8.20704846 L52.5253682,4.96585903 C52.5253682,3.06277533 54.0989637,1.12995595 56.0356966,1.12995595 Z M281.916261,5.40815847 L275.742903,5.40815847 L275.742903,11.3611214 L281.916261,11.3611214 C283.291514,11.3611214 284.452839,10.1047171 284.452839,8.57908343 L284.452839,8.19019641 C284.452839,6.69447709 283.291514,5.40815847 281.916261,5.40815847 Z M57.7908608,4.51982379 L56.73171,4.51982379 C56.1567424,4.51982379 55.6725592,5.05506608 55.6725592,5.7092511 L55.6725592,7.4339207 C55.6725592,8.05837004 56.1567424,8.59361233 56.73171,8.59361233 L57.7908608,8.59361233 C58.3658283,8.59361233 58.8500115,8.05837004 58.8500115,7.4339207 L58.8500115,5.7092511 C58.8500115,5.05506608 58.3658283,4.51982379 57.7908608,4.51982379 Z" id="Combined-Shape"></path>
            </g>
        </g>
    </g>
</svg>